<?xml version="1.0" standalone="no"?>
<!DOCTYPE svg PUBLIC "-//W3C//DTD SVG 20010904//EN"
 "http://www.w3.org/TR/2001/REC-SVG-20010904/DTD/svg10.dtd">
<svg version="1.0" xmlns="http://www.w3.org/2000/svg"
 width="768.000000pt" height="755.000000pt" viewBox="0 0 768.000000 755.000000"
 preserveAspectRatio="xMidYMid meet">

<g transform="translate(0.000000,755.000000) scale(0.100000,-0.100000)"
fill="#000000" stroke="none">
<path d="M3837 7533 c-5 -8 -181 -585 -199 -653 -5 -19 -20 -69 -33 -110 -13
-41 -58 -192 -101 -335 -42 -143 -80 -264 -84 -268 -4 -4 -36 34 -71 85 l-64
93 -7 -105 c-4 -58 -14 -303 -23 -545 -23 -673 -28 -765 -34 -764 -3 0 -60 65
-125 145 -66 79 -121 142 -124 139 -5 -5 5 -92 43 -360 13 -93 38 -271 55
-395 17 -124 42 -300 56 -392 13 -92 24 -170 24 -173 0 -14 -22 1 -100 70 -46
41 -88 75 -93 75 -4 0 -5 -10 -2 -22 3 -13 14 -93 25 -178 10 -85 35 -281 55
-434 20 -154 35 -285 33 -293 -2 -7 -113 135 -248 315 l-245 327 -5 -91 -5
-91 -46 61 c-349 460 -463 606 -469 599 -5 -4 -16 -62 -25 -128 -9 -66 -19
-122 -21 -125 -3 -2 -185 176 -404 395 -220 220 -400 393 -400 385 0 -8 7 -58
15 -110 8 -52 13 -96 11 -98 -2 -1 -95 38 -207 89 -365 164 -802 360 -903 405
-54 25 -101 43 -103 40 -3 -2 104 -175 238 -383 133 -208 277 -432 319 -498
42 -66 112 -174 154 -240 l77 -120 -101 -5 -101 -5 412 -399 c443 -431 428
-412 329 -416 -25 -2 -58 -5 -75 -9 -34 -8 -69 20 425 -341 146 -106 276 -203
288 -214 l24 -21 -104 -11 -103 -10 145 -71 c80 -39 240 -117 355 -174 l210
-104 -418 -3 c-229 -1 -417 -6 -417 -10 0 -4 14 -27 30 -52 l30 -45 -23 -7
c-12 -3 -159 -16 -327 -28 -168 -12 -306 -23 -307 -24 -1 -1 11 -22 27 -46 34
-51 36 -60 16 -60 -8 0 -95 -22 -193 -49 -98 -27 -250 -68 -338 -91 -88 -23
-166 -46 -174 -50 -16 -8 -2 -13 249 -81 401 -108 473 -128 478 -133 2 -3 -12
-25 -32 -50 -43 -53 -45 -67 -8 -61 48 8 653 38 658 32 3 -3 -11 -30 -31 -61
-44 -69 -52 -88 -34 -81 32 12 812 165 817 161 3 -3 -6 -23 -20 -43 -14 -21
-30 -49 -37 -62 l-13 -24 78 7 c44 4 171 18 284 32 113 13 225 26 250 29 l45
5 -70 -68 c-38 -37 -126 -120 -195 -184 l-125 -117 58 -1 c31 0 57 -3 56 -7 0
-5 -94 -105 -209 -223 -115 -118 -208 -216 -207 -217 1 -1 24 3 50 9 27 5 51
8 53 5 3 -2 -16 -56 -42 -118 -25 -63 -66 -163 -90 -223 -25 -60 -43 -110 -41
-112 2 -2 102 56 223 130 120 74 222 132 226 129 5 -2 8 -32 8 -66 l0 -62 176
183 c97 100 179 182 183 182 5 0 14 -27 21 -60 7 -33 15 -60 19 -60 3 0 61 91
127 202 67 111 126 204 132 206 5 1 15 -19 22 -45 7 -26 16 -51 19 -55 4 -4
58 88 121 205 l115 212 3 -160 c3 -202 -30 -480 -90 -740 -22 -99 -43 -186
-45 -192 -4 -10 49 -13 247 -13 l252 0 -7 27 c-82 325 -123 600 -131 883 -4
162 -3 192 8 179 7 -9 60 -104 118 -212 58 -108 108 -197 111 -197 3 0 12 25
19 55 7 31 16 58 20 60 3 2 62 -90 130 -205 69 -115 128 -209 132 -210 4 0 10
12 14 28 3 15 10 43 15 64 l9 36 154 -156 c85 -87 164 -169 176 -185 12 -15
25 -27 30 -27 5 0 10 29 12 64 l3 65 220 -134 c121 -74 223 -135 227 -135 4 0
-7 33 -24 73 -79 184 -157 381 -154 385 3 2 26 -1 53 -6 26 -6 49 -10 50 -8 1
1 -93 101 -209 221 l-211 220 59 5 58 5 -192 179 c-106 99 -191 181 -189 183
2 1 98 -9 213 -22 293 -36 424 -48 431 -41 3 3 -11 31 -31 62 -21 31 -35 58
-33 60 5 5 806 -154 819 -163 16 -9 6 14 -31 77 l-39 65 36 2 c20 2 177 -5
347 -15 171 -10 312 -17 314 -16 2 2 -15 25 -38 52 -22 28 -41 52 -41 55 0 7
9 9 425 122 284 77 346 95 321 95 -3 0 -73 18 -154 40 -81 22 -238 65 -350 95
-111 30 -209 55 -217 55 -21 0 -19 5 16 56 17 25 29 47 27 48 -1 2 -131 13
-288 25 -157 12 -304 24 -327 27 l-42 5 35 55 35 54 -423 0 c-241 0 -418 4
-412 9 5 5 160 81 344 170 184 89 339 166 343 170 5 5 -38 13 -95 17 l-103 9
105 78 c58 42 230 168 382 280 152 111 277 205 277 209 1 4 -25 9 -56 13 -32
3 -73 9 -91 13 l-34 7 413 400 412 400 -96 3 c-54 1 -97 5 -97 8 0 3 5 15 12
27 10 20 627 985 735 1150 25 38 43 70 41 71 -2 2 -79 -32 -173 -74 -590 -269
-1046 -472 -1050 -468 -2 3 16 131 30 203 4 24 -71 -46 -397 -372 -222 -222
-406 -403 -409 -403 -4 0 -14 62 -24 137 l-18 137 -30 -38 c-40 -49 -375 -490
-441 -580 l-51 -70 -5 94 -5 93 -244 -327 c-134 -180 -245 -325 -247 -323 -4
4 9 113 86 712 11 88 23 175 26 193 4 17 3 32 -1 32 -4 0 -45 -34 -92 -75 -47
-41 -90 -75 -95 -75 -4 0 -6 10 -3 23 2 12 16 103 30 202 38 277 124 901 136
985 5 41 12 85 15 98 2 12 1 22 -3 22 -5 0 -62 -66 -128 -145 -92 -113 -121
-141 -126 -128 -3 10 -9 97 -12 193 -4 96 -14 378 -22 625 -9 248 -19 479 -23
514 l-7 64 -59 -87 c-32 -48 -62 -89 -67 -91 -4 -3 -12 9 -18 27 -16 51 -292
968 -306 1018 -25 88 -97 325 -100 328 -2 2 -5 0 -8 -5z"/>
</g>
</svg>
